<?xml version="1.0" encoding="UTF-8"?>
<svg id="Layer_1" xmlns="http://www.w3.org/2000/svg" version="1.1" viewBox="0 0 800 800">
  <!-- Generator: Adobe Illustrator 29.6.0, SVG Export Plug-In . SVG Version: 2.1.1 Build 207)  -->
  <defs>
    <style>
      .st0 {
        fill: none;
      }

      .st1 {
        fill: #ed1c24;
        fill-rule: evenodd;
      }
    </style>
  </defs>
  <g id="_页面-1" data-name="页面-1">
    <g id="heart_line">
      <path id="MingCute" class="st0" d="M800,0v800H0V0h800ZM419.78,775.26l-.38.06-2.37,1.18-.63.12h0l-.51-.12-2.37-1.18c-.33-.1-.62-.02-.78.18l-.14.36-.57,14.24.17.68.37.41,3.45,2.47.5.13h0l.39-.13,3.45-2.47.42-.53h0l.11-.55-.57-14.24c-.07-.34-.28-.55-.54-.6h0ZM428.61,771.51l-.46.07-6.16,3.08-.33.34h0l-.09.37.6,14.32.16.43h0l.28.24,6.7,3.09c.4.12.76,0,.95-.27l.13-.47-1.14-20.49c-.08-.4-.34-.65-.64-.71h0ZM404.77,771.58c-.33-.16-.7-.07-.91.18l-.19.46-1.14,20.49c-.02.38.23.69.56.78l.52-.04,6.7-3.09.31-.27h0l.13-.39.6-14.32-.11-.42h0l-.32-.3-6.16-3.08Z"/>
      <path id="_形状" data-name="形状" class="st1" d="M616.46,126.71c69.85,40.7,118.97,123.32,116.8,219.73-2.7,120.3-96.35,226.45-255.95,321.26-23.66,14.06-48.61,32.31-77.31,32.31s-54.18-18.56-77.31-32.31c-159.59-94.8-253.25-200.95-255.95-321.26-2.16-96.41,46.95-179.03,116.8-219.73,65.33-38.06,147.4-38.27,216.46,17.91,69.06-56.18,151.13-55.97,216.46-17.91ZM582.9,184.31c-46.46-27.07-104.52-26.1-154.81,24.74-15.42,15.59-40.76,15.59-56.18,0-50.29-50.85-108.35-51.81-154.81-24.74-48.15,28.05-85.35,87.6-83.71,160.63,1.88,83.73,67.99,173.15,223.35,265.44,13.6,8.08,27.81,18.46,43.27,22.75,15.46-4.29,29.67-14.68,43.27-22.75,155.36-92.29,221.47-181.7,223.35-265.44,1.64-73.02-35.57-132.58-83.71-160.63Z"/>
    </g>
  </g>
</svg>