<?xml version="1.0" encoding="UTF-8"?>
<svg id="Layer_1" xmlns="http://www.w3.org/2000/svg" version="1.1" viewBox="0 0 30 30">
  <!-- Generator: Adobe Illustrator 29.6.0, SVG Export Plug-In . SVG Version: 2.1.1 Build 207)  -->
  <path d="M3.7,14.62c0-2.02.5-3.91,1.52-5.65s2.39-3.13,4.13-4.15,3.63-1.52,5.65-1.52,3.93.5,5.67,1.52c1.74,1.02,3.11,2.39,4.13,4.13,1.02,1.74,1.52,3.63,1.52,5.67s-.5,3.93-1.52,5.67c-1.02,1.74-2.39,3.11-4.13,4.13s-3.63,1.52-5.67,1.52-3.91-.5-5.65-1.52c-1.74-1.02-3.11-2.39-4.13-4.13-1.02-1.74-1.52-3.63-1.52-5.67ZM13.37,7.24c1.89.24,3.47,1.06,4.76,2.5s1.93,3.13,1.93,5.06c0,1.8-.56,3.39-1.69,4.78s-2.56,2.26-4.3,2.63c.43.04.74.09.93.09,2.13,0,3.93-.76,5.43-2.26s2.26-3.3,2.26-5.43-.76-3.87-2.26-5.36c-1.5-1.48-3.32-2.21-5.43-2.21-.56.04-1.11.11-1.63.22Z"/>
</svg>