<?xml version="1.0" encoding="UTF-8"?>
<svg id="Layer_1" xmlns="http://www.w3.org/2000/svg" version="1.1" viewBox="0 0 30 30">
  <!-- Generator: Adobe Illustrator 29.6.0, SVG Export Plug-In . SVG Version: 2.1.1 Build 207)  -->
  <path d="M7.02,6.53c1.44-1.44,3.14-2.42,5.08-2.93s3.87-.51,5.81,0,3.62,1.48,5.06,2.92c1.07,1.07,1.9,2.32,2.46,3.72s.83,2.81.84,4.24-.28,2.84-.85,4.24-1.39,2.64-2.47,3.73-2.32,1.9-3.72,2.46-2.82.84-4.24.84-2.83-.28-4.23-.85-2.64-1.38-3.72-2.46-1.91-2.33-2.47-3.73-.84-2.82-.85-4.24.28-2.83.83-4.23,1.39-2.63,2.47-3.71ZM8.78,8.29c-1.68,1.68-2.52,3.74-2.54,6.2,0,2.45.85,4.51,2.55,6.22,1.12,1.12,2.43,1.88,3.94,2.27s3.02.4,4.53,0,2.83-1.15,3.95-2.26,1.87-2.44,2.27-3.95.4-3.03,0-4.54-1.15-2.82-2.27-3.94-2.43-1.88-3.94-2.27-3.03-.4-4.55,0-2.83,1.16-3.95,2.28ZM8.1,15.88l11.92-6.62c.08-.06.15-.06.21,0s.06.13,0,.21l-6.63,11.91c-.05.11-.11.16-.19.16s-.13-.05-.17-.17l-1.53-3.37c-.04-.1-.11-.17-.21-.21l-3.39-1.56c-.11-.03-.16-.08-.15-.15s.05-.16.13-.22Z"/>
</svg>